<svg width="21" height="17" viewBox="0 0 21 17" fill="none" xmlns="http://www.w3.org/2000/svg">
<g id="campaign">
<path id="campaign_2" d="M16.8333 8.95827V7.33333H20.7499V8.95827H16.8333ZM18.0708 16.2499L14.9375 13.9L15.925 12.6042L19.0583 14.9541L18.0708 16.2499ZM15.8833 3.6458L14.8958 2.34999L18.0291 0L19.0166 1.2958L15.8833 3.6458ZM3.0625 15.1666V10.9374H1.95831C1.41806 10.9374 0.956601 10.7461 0.57395 10.3635C0.191317 9.98084 0 9.51939 0 8.97913V7.31247C0 6.77221 0.191317 6.31076 0.57395 5.92811C0.956601 5.54548 1.41806 5.35416 1.95831 5.35416H6.1458L10.9999 2.45835V13.8332L6.1458 10.9374H4.68745V15.1666H3.0625ZM12.5 11.525V4.76664C12.925 5.15137 13.2673 5.63609 13.527 6.2208C13.7868 6.80553 13.9166 7.4472 13.9166 8.1458C13.9166 8.84441 13.7868 9.48607 13.527 10.0708C13.2673 10.6555 12.925 11.1402 12.5 11.525Z" fill="#FF6161"/>
</g>
</svg>
