<svg width="176" height="148" viewBox="0 0 176 148" fill="none" xmlns="http://www.w3.org/2000/svg">
<g id="Frame 1000003647">
<path id="Vector" d="M22.8233 147.203H2.11514C1.55439 147.202 1.01679 146.979 0.620262 146.583C0.223736 146.186 0.000669961 145.649 0 145.088V76.8561C0.000669961 76.2953 0.223736 75.7577 0.620262 75.3612C1.01679 74.9647 1.55439 74.7417 2.11514 74.7411H22.8233C23.3841 74.7417 23.9217 74.9647 24.3182 75.3612C24.7147 75.7577 24.9378 76.2953 24.9385 76.8561V145.088C24.9378 145.649 24.7147 146.186 24.3182 146.583C23.9217 146.979 23.3841 147.202 22.8233 147.203Z" fill="#A4FF6C"/>
<path id="Vector_2" d="M60.589 147.203H39.8808C39.32 147.202 38.7824 146.979 38.3859 146.583C37.9894 146.186 37.7663 145.649 37.7656 145.088V49.7799C37.7663 49.2191 37.9894 48.6816 38.3859 48.2851C38.7824 47.8886 39.32 47.6655 39.8808 47.6649H60.589C61.1497 47.6655 61.6873 47.8886 62.0838 48.2851C62.4804 48.6816 62.7034 49.2191 62.7041 49.7799V145.088C62.7034 145.649 62.4804 146.186 62.0838 146.583C61.6873 146.979 61.1497 147.202 60.589 147.203Z" fill="#A4FF6C"/>
<path id="Vector_3" d="M98.3507 147.203H77.6425C77.0817 147.202 76.5441 146.979 76.1476 146.583C75.7511 146.186 75.528 145.649 75.5273 145.088V76.8561C75.528 76.2953 75.7511 75.7577 76.1476 75.3612C76.5441 74.9647 77.0817 74.7417 77.6425 74.7411H98.3507C98.9114 74.7417 99.449 74.9647 99.8455 75.3612C100.242 75.7577 100.465 76.2953 100.466 76.8561V145.088C100.465 145.649 100.242 146.186 99.8455 146.583C99.449 146.979 98.9114 147.202 98.3507 147.203Z" fill="#A4FF6C"/>
<path id="Vector_4" d="M136.12 147.203H115.412C114.864 147.215 114.334 147.009 113.937 146.631C113.541 146.252 113.311 145.732 113.297 145.184V38.9963C113.311 38.4484 113.541 37.9282 113.937 37.5497C114.334 37.1713 114.864 36.9654 115.412 36.9772H136.12C136.668 36.9654 137.198 37.1713 137.595 37.5497C137.991 37.9282 138.222 38.4484 138.235 38.9963V145.184C138.222 145.732 137.991 146.252 137.595 146.631C137.198 147.009 136.668 147.215 136.12 147.203Z" fill="#A4FF6C"/>
<path id="Vector_5" d="M173.886 147.203H153.178C152.617 147.202 152.079 146.979 151.683 146.583C151.286 146.186 151.063 145.649 151.062 145.088V19.8537C151.063 19.293 151.286 18.7554 151.683 18.3589C152.079 17.9624 152.617 17.7394 153.178 17.7388H173.886C174.447 17.7394 174.984 17.9624 175.381 18.3589C175.777 18.7554 176 19.293 176.001 19.8537V145.088C176 145.649 175.777 146.186 175.381 146.583C174.984 146.979 174.447 147.202 173.886 147.203Z" fill="#A4FF6C"/>
<path id="Vector_6" d="M12.4666 66.1907C14.8277 66.1907 16.7417 64.2767 16.7417 61.9155C16.7417 59.5544 14.8277 57.6404 12.4666 57.6404C10.1055 57.6404 8.19141 59.5544 8.19141 61.9155C8.19141 64.2767 10.1055 66.1907 12.4666 66.1907Z" fill="#3F3D56"/>
<path id="Vector_7" d="M50.2322 38.4021C52.5933 38.4021 54.5074 36.4881 54.5074 34.127C54.5074 31.7659 52.5933 29.8518 50.2322 29.8518C47.8711 29.8518 45.957 31.7659 45.957 34.127C45.957 36.4881 47.8711 38.4021 50.2322 38.4021Z" fill="#3F3D56"/>
<path id="Vector_8" d="M87.9978 66.1907C90.3589 66.1907 92.273 64.2767 92.273 61.9155C92.273 59.5544 90.3589 57.6404 87.9978 57.6404C85.6367 57.6404 83.7227 59.5544 83.7227 61.9155C83.7227 64.2767 85.6367 66.1907 87.9978 66.1907Z" fill="#3F3D56"/>
<path id="Vector_9" d="M125.763 24.8641C128.125 24.8641 130.039 22.95 130.039 20.5889C130.039 18.2278 128.125 16.3137 125.763 16.3137C123.402 16.3137 121.488 18.2278 121.488 20.5889C121.488 22.95 123.402 24.8641 125.763 24.8641Z" fill="#3F3D56"/>
<path id="Vector_10" d="M163.529 9.18852C165.89 9.18852 167.804 7.27446 167.804 4.91335C167.804 2.55224 165.89 0.638184 163.529 0.638184C161.168 0.638184 159.254 2.55224 159.254 4.91335C159.254 7.27446 161.168 9.18852 163.529 9.18852Z" fill="#3F3D56"/>
<path id="Vector_11" d="M12.2341 62.183L11.8359 61.6481L50.2264 33.0667L87.8681 61.1435L126.025 19.7156L126.093 19.6876L163.125 4.40393L163.379 5.02056L126.416 20.2759L87.9511 62.0376L50.226 33.8984L12.2341 62.183Z" fill="#3F3D56"/>
</g>
</svg>
