<svg width="49" height="48" viewBox="0 0 49 48" fill="none" xmlns="http://www.w3.org/2000/svg">
<g id="vuesax/bulk/calendar-remove">
<g id="calendar-remove">
<path id="Vector" d="M34.0005 7.12V4C34.0005 3.18 33.3205 2.5 32.5005 2.5C31.6805 2.5 31.0005 3.18 31.0005 4V7H18.0005V4C18.0005 3.18 17.3205 2.5 16.5005 2.5C15.6805 2.5 15.0005 3.18 15.0005 4V7.12C9.60047 7.62 6.98046 10.84 6.58046 15.62C6.54046 16.2 7.02046 16.68 7.58046 16.68H41.4205C42.0005 16.68 42.4805 16.18 42.4205 15.62C42.0205 10.84 39.4005 7.62 34.0005 7.12Z" fill="#7B61FF"/>
<path id="Vector_2" opacity="0.4" d="M42.5 21.68V25.16C42.5 26.38 41.42 27.32 40.22 27.12C39.66 27.04 39.08 26.98 38.5 26.98C32.44 26.98 27.5 31.92 27.5 37.98C27.5 38.9 27.86 40.18 28.24 41.34C28.68 42.64 27.72 43.98 26.34 43.98H16.5C9.5 43.98 6.5 39.98 6.5 33.98V21.66C6.5 20.56 7.4 19.66 8.5 19.66H40.5C41.6 19.68 42.5 20.58 42.5 21.68Z" fill="#D6CEFF"/>
<path id="Vector_3" d="M38.5 30C34.08 30 30.5 33.58 30.5 38C30.5 42.42 34.08 46 38.5 46C42.92 46 46.5 42.42 46.5 38C46.5 33.58 42.92 30 38.5 30ZM41.7 41.28C41.4 41.58 41.02 41.72 40.64 41.72C40.26 41.72 39.88 41.58 39.58 41.28L38.52 40.22L37.42 41.32C37.12 41.62 36.74 41.76 36.36 41.76C35.98 41.76 35.6 41.62 35.3 41.32C34.72 40.74 34.72 39.78 35.3 39.2L36.4 38.1L35.34 37.04C34.76 36.46 34.76 35.5 35.34 34.92C35.92 34.34 36.88 34.34 37.46 34.92L38.52 35.98L39.52 34.98C40.1 34.4 41.06 34.4 41.64 34.98C42.22 35.56 42.22 36.52 41.64 37.1L40.64 38.1L41.7 39.16C42.28 39.76 42.28 40.7 41.7 41.28Z" fill="#7B61FF"/>
<path id="Vector_4" d="M17.5 30.0001C16.98 30.0001 16.46 29.7801 16.08 29.4201C15.72 29.0401 15.5 28.5201 15.5 28.0001C15.5 27.4801 15.72 26.9601 16.08 26.5801C16.54 26.1201 17.24 25.9 17.9 26.04C18.02 26.06 18.14 26.1 18.26 26.16C18.38 26.2 18.5 26.2601 18.62 26.3401C18.72 26.4201 18.82 26.5001 18.92 26.5801C19.28 26.9601 19.5 27.4801 19.5 28.0001C19.5 28.5201 19.28 29.0401 18.92 29.4201C18.82 29.5001 18.72 29.58 18.62 29.66C18.5 29.74 18.38 29.8001 18.26 29.8401C18.14 29.9001 18.02 29.9401 17.9 29.9601C17.76 29.9801 17.62 30.0001 17.5 30.0001Z" fill="#7B61FF"/>
<path id="Vector_5" d="M24.5 30C23.98 30 23.46 29.78 23.08 29.42C22.72 29.04 22.5 28.52 22.5 28C22.5 27.48 22.72 26.96 23.08 26.58C23.84 25.84 25.18 25.84 25.92 26.58C26.28 26.96 26.5 27.48 26.5 28C26.5 28.52 26.28 29.04 25.92 29.42C25.54 29.78 25.02 30 24.5 30Z" fill="#7B61FF"/>
<path id="Vector_6" d="M17.5 37C16.98 37 16.46 36.78 16.08 36.42C15.72 36.04 15.5 35.52 15.5 35C15.5 34.48 15.72 33.96 16.08 33.58C16.28 33.4 16.48 33.26 16.74 33.16C17.48 32.84 18.36 33.02 18.92 33.58C19.28 33.96 19.5 34.48 19.5 35C19.5 35.52 19.28 36.04 18.92 36.42C18.54 36.78 18.02 37 17.5 37Z" fill="#7B61FF"/>
</g>
</g>
</svg>
