<svg width="26" height="26" viewBox="0 0 26 26" fill="none" xmlns="http://www.w3.org/2000/svg">
<g id="campaign">
<mask id="mask0_1_33805" style="mask-type:alpha" maskUnits="userSpaceOnUse" x="0" y="0" width="26" height="26">
<rect id="Bounding box" width="26" height="26" fill="#D9D9D9"/>
</mask>
<g mask="url(#mask0_1_33805)">
<path id="campaign_2" d="M20.2811 13.7931V11.8354H25V13.7931H20.2811ZM21.7721 22.5783L17.997 19.747L19.1868 18.1858L22.9618 21.0171L21.7721 22.5783ZM19.1365 7.39254L17.9468 5.83132L21.7219 3L22.9116 4.56121L19.1365 7.39254ZM3.68977 21.273V16.1777H2.35942C1.70851 16.1777 1.15253 15.9472 0.691508 15.4862C0.230502 15.0251 0 14.4692 0 13.8183V11.8102C0 11.1593 0.230502 10.6033 0.691508 10.1423C1.15253 9.68131 1.70851 9.45081 2.35942 9.45081H7.4046L13.253 5.96188V19.6666L7.4046 16.1777H5.64754V21.273H3.68977ZM11.2952 16.1878V9.44073L7.94676 11.4086H2.35942C2.25903 11.4086 2.16699 11.4504 2.0833 11.5341C1.99964 11.6178 1.9578 11.7098 1.9578 11.8102V13.8183C1.9578 13.9186 1.99964 14.0107 2.0833 14.0944C2.16699 14.178 2.25903 14.2199 2.35942 14.2199H7.94676L11.2952 16.1878ZM15.0602 16.8855V8.74295C15.5723 9.20648 15.9848 9.79048 16.2977 10.495C16.6106 11.1994 16.7671 11.9725 16.7671 12.8142C16.7671 13.6559 16.6106 14.429 16.2977 15.1335C15.9848 15.838 15.5723 16.422 15.0602 16.8855Z" fill="white"/>
</g>
</g>
</svg>
