<svg width="15" height="14" viewBox="0 0 15 14" fill="none" xmlns="http://www.w3.org/2000/svg">
<g id="vuesax/linear/edit">
<g id="edit">
<path id="Vector" d="M6.95597 1.54547H5.86506C3.13778 1.54547 2.04688 2.63638 2.04688 5.36365V8.63638C2.04688 11.3637 3.13778 12.4546 5.86506 12.4546H9.13778C11.8651 12.4546 12.956 11.3637 12.956 8.63638V7.54547" stroke="white" stroke-width="0.818182" stroke-linecap="round" stroke-linejoin="round"/>
<path id="Vector_2" d="M9.70499 2.10185L5.40681 6.40003C5.24317 6.56366 5.07954 6.88548 5.04681 7.12003L4.81226 8.76185C4.72499 9.35639 5.14499 9.77094 5.73954 9.68912L7.38135 9.45457C7.61045 9.42185 7.93226 9.25821 8.10135 9.09457L12.3995 4.79639C13.1414 4.05457 13.4904 3.19275 12.3995 2.10185C11.3086 1.01094 10.4468 1.36003 9.70499 2.10185Z" stroke="white" stroke-width="0.818182" stroke-miterlimit="10" stroke-linecap="round" stroke-linejoin="round"/>
<path id="Vector_3" d="M9.08789 2.7182C9.45335 4.02184 10.4733 5.04184 11.7824 5.41275" stroke="white" stroke-width="0.818182" stroke-miterlimit="10" stroke-linecap="round" stroke-linejoin="round"/>
</g>
</g>
</svg>
