<svg width="215" height="196" viewBox="0 0 215 196" fill="none" xmlns="http://www.w3.org/2000/svg">
<g id="Frame 8570">
<path id="Vector" d="M197.346 21.9456H180.883V162.301C180.883 164.504 180.449 166.684 179.607 168.719C178.764 170.753 177.529 172.602 175.971 174.159C174.414 175.716 172.566 176.951 170.531 177.794C168.497 178.637 166.316 179.07 164.114 179.07H38.248V179.231C38.248 181.433 38.6818 183.614 39.5245 185.648C40.3672 187.683 41.6024 189.531 43.1596 191.088C44.7167 192.646 46.5653 193.881 48.5998 194.723C50.6344 195.566 52.8149 196 55.0171 196H197.346C199.548 196 201.729 195.566 203.763 194.723C205.798 193.881 207.646 192.646 209.203 191.088C210.761 189.531 211.996 187.683 212.838 185.648C213.681 183.614 214.115 181.433 214.115 179.231V38.7146C214.115 34.2672 212.348 30.0019 209.203 26.8571C206.059 23.7123 201.793 21.9456 197.346 21.9456Z" fill="#F2F2F2"/>
<path id="Vector_2" d="M159.098 0H16.769C7.50775 0 0 7.50775 0 16.769V157.285C0 166.547 7.50775 174.054 16.769 174.054H159.098C168.359 174.054 175.867 166.547 175.867 157.285V16.769C175.867 7.50775 168.359 0 159.098 0Z" fill="#F2F2F2"/>
<path id="Vector_3" d="M16.7707 3.44849C15.0214 3.44849 13.2892 3.79302 11.6731 4.46244C10.057 5.13185 8.58859 6.11304 7.35167 7.34996C6.11475 8.58688 5.13356 10.0553 4.46414 11.6714C3.79473 13.2875 3.45019 15.0197 3.4502 16.769V157.285C3.4502 160.818 4.85359 164.206 7.35167 166.704C9.84974 169.202 13.2379 170.606 16.7707 170.606H107.608C116.12 170.606 124.547 168.929 132.411 165.672C140.274 162.415 147.419 157.641 153.437 151.623C159.455 145.605 164.229 138.46 167.486 130.597C170.743 122.733 172.42 114.306 172.42 105.794V16.769C172.42 15.0197 172.075 13.2875 171.406 11.6714C170.736 10.0553 169.755 8.58688 168.518 7.34996C167.281 6.11304 165.813 5.13185 164.197 4.46244C162.581 3.79302 160.849 3.44849 159.099 3.44849H16.7707Z" fill="white"/>
<path id="Vector_4" d="M127.721 46.0926H47.8352C47.1022 46.0926 46.3992 45.8014 45.8808 45.2831C45.3625 44.7648 45.0713 44.0618 45.0713 43.3287C45.0713 42.5957 45.3625 41.8927 45.8808 41.3743C46.3992 40.856 47.1022 40.5648 47.8352 40.5648H127.721C128.454 40.5648 129.157 40.856 129.676 41.3743C130.194 41.8927 130.485 42.5957 130.485 43.3287C130.485 44.0618 130.194 44.7648 129.676 45.2831C129.157 45.8014 128.454 46.0926 127.721 46.0926Z" fill="#F2F2F2"/>
<path id="Vector_5" d="M127.721 105.033H47.8352C47.1022 105.033 46.3992 104.741 45.8808 104.223C45.3625 103.705 45.0713 103.002 45.0713 102.269C45.0713 101.536 45.3625 100.833 45.8808 100.314C46.3992 99.796 47.1022 99.5048 47.8352 99.5048H127.721C128.454 99.5048 129.157 99.796 129.676 100.314C130.194 100.833 130.485 101.536 130.485 102.269C130.485 103.002 130.194 103.705 129.676 104.223C129.157 104.741 128.454 105.033 127.721 105.033Z" fill="#F2F2F2"/>
<path id="Vector_6" d="M160.162 75.5818H15.3957C14.6627 75.5818 13.9597 75.2906 13.4414 74.7723C12.923 74.2539 12.6318 73.5509 12.6318 72.8179C12.6318 72.0848 12.923 71.3818 13.4414 70.8635C13.9597 70.3451 14.6627 70.054 15.3957 70.054H160.162C160.895 70.054 161.598 70.3451 162.116 70.8635C162.635 71.3818 162.926 72.0848 162.926 72.8179C162.926 73.5509 162.635 74.2539 162.116 74.7723C161.598 75.2906 160.895 75.5818 160.162 75.5818Z" fill="#F2F2F2"/>
<path id="Vector_7" d="M179.105 133.611H60.5987C58.0211 133.611 55.5491 134.635 53.7264 136.457C51.9038 138.28 50.8799 140.752 50.8799 143.329C50.8799 145.907 51.9038 148.379 53.7264 150.202C55.5491 152.024 58.0211 153.048 60.5987 153.048H179.105C181.683 153.048 184.155 152.024 185.977 150.202C187.8 148.379 188.824 145.907 188.824 143.329C188.824 140.752 187.8 138.28 185.977 136.457C184.155 134.635 181.683 133.611 179.105 133.611Z" fill="white"/>
<path id="Vector_8" d="M179.103 153.675H60.5968C57.8529 153.675 55.2214 152.585 53.2812 150.645C51.341 148.705 50.251 146.073 50.251 143.329C50.251 140.586 51.341 137.954 53.2812 136.014C55.2214 134.074 57.8529 132.984 60.5968 132.984H179.103C181.847 132.984 184.479 134.074 186.419 136.014C188.359 137.954 189.449 140.586 189.449 143.329C189.449 146.073 188.359 148.705 186.419 150.645C184.479 152.585 181.847 153.675 179.103 153.675ZM60.5968 134.238C58.1855 134.238 55.873 135.196 54.1679 136.901C52.4629 138.606 51.505 140.918 51.505 143.329C51.505 145.741 52.4629 148.053 54.1679 149.758C55.873 151.463 58.1855 152.421 60.5968 152.421H179.103C181.515 152.421 183.827 151.463 185.532 149.758C187.237 148.053 188.195 145.741 188.195 143.329C188.195 140.918 187.237 138.606 185.532 136.901C183.827 135.196 181.515 134.238 179.103 134.238H60.5968Z" fill="#6C63FF"/>
<path id="Vector_9" d="M186.091 176.024H133.793C133.06 176.024 132.357 175.732 131.839 175.214C131.32 174.696 131.029 173.993 131.029 173.26C131.029 172.527 131.32 171.824 131.839 171.305C132.357 170.787 133.06 170.496 133.793 170.496H186.091C186.824 170.496 187.527 170.787 188.045 171.305C188.563 171.824 188.854 172.527 188.854 173.26C188.854 173.993 188.563 174.696 188.045 175.214C187.527 175.732 186.824 176.024 186.091 176.024Z" fill="#6C63FF"/>
</g>
</svg>
