<svg width="18" height="19" viewBox="0 0 18 19" fill="none" xmlns="http://www.w3.org/2000/svg">
<g id="vuesax/linear/image">
<g id="image">
<path id="Vector" d="M16.2597 13.22L13.9122 7.73747C13.1172 5.87747 11.6547 5.80247 10.6722 7.57247L9.2547 10.13C8.5347 11.4275 7.1922 11.54 6.2622 10.3775L6.0972 10.1675C5.1297 8.95247 3.7647 9.10247 3.0672 10.49L1.7772 13.0775C0.8697 14.8775 2.1822 17 4.1922 17H13.7622C15.7122 17 17.0247 15.0125 16.2597 13.22Z" stroke="#7B61FF" stroke-width="1.125" stroke-linecap="round" stroke-linejoin="round"/>
<path id="Vector_2" d="M5.22852 6.5C6.47116 6.5 7.47852 5.49264 7.47852 4.25C7.47852 3.00736 6.47116 2 5.22852 2C3.98587 2 2.97852 3.00736 2.97852 4.25C2.97852 5.49264 3.98587 6.5 5.22852 6.5Z" stroke="#7B61FF" stroke-width="1.125" stroke-linecap="round" stroke-linejoin="round"/>
</g>
</g>
</svg>
