<svg width="17" height="16" viewBox="0 0 17 16" fill="none" xmlns="http://www.w3.org/2000/svg">
<g id="vuesax/linear/like">
<g id="like">
<path id="Vector" d="M5.48828 12.2333L7.55495 13.8333C7.82161 14.1 8.42161 14.2333 8.82161 14.2333H11.3549C12.1549 14.2333 13.0216 13.6333 13.2216 12.8333L14.8216 7.96667C15.1549 7.03333 14.5549 6.23333 13.5549 6.23333H10.8883C10.4883 6.23333 10.1549 5.9 10.2216 5.43333L10.5549 3.3C10.6883 2.7 10.2883 2.03333 9.68828 1.83333C9.15495 1.63333 8.48828 1.9 8.22161 2.3L5.48828 6.36667" stroke="#546881" stroke-width="1.5" stroke-miterlimit="10"/>
<path id="Vector_2" d="M2.08594 12.2333V5.69999C2.08594 4.76665 2.48594 4.43332 3.41927 4.43332H4.08594C5.01927 4.43332 5.41927 4.76665 5.41927 5.69999V12.2333C5.41927 13.1667 5.01927 13.5 4.08594 13.5H3.41927C2.48594 13.5 2.08594 13.1667 2.08594 12.2333Z" stroke="#546881" stroke-width="1.5" stroke-linecap="round" stroke-linejoin="round"/>
</g>
</g>
</svg>
