<svg width="150" height="150" viewBox="0 0 150 150" fill="none" xmlns="http://www.w3.org/2000/svg">
<g id="Frame 52">
<path id="Vector" d="M136.813 117.425C136.545 117.819 136.27 118.206 135.994 118.594L135.363 117.325L135.263 117.119L134.638 115.869L118.726 83.8002L118.72 83.794L91.7444 29.4565V29.4502L91.1255 28.2065V28.2002L77.7756 1.30649L77.1445 0.0314941C77.6194 0.0439941 78.0943 0.0627466 78.5694 0.0877466L79.2069 1.36899L92.5196 28.2002L92.5257 28.2065L93.1446 29.4502V29.4565L119.432 82.4127V82.419L120.051 83.6627V83.669L135.963 115.713L136.176 116.144L136.813 117.425Z" fill="#392F25"/>
<path id="Vector_2" d="M134.545 29.4565H15.457C15.7759 29.0378 16.1007 28.619 16.4382 28.2065H133.563C133.901 28.619 134.226 29.0378 134.545 29.4565Z" fill="#392F25"/>
<path id="Vector_3" d="M149.632 82.4186C149.595 82.8373 149.551 83.2561 149.495 83.6686H118.988V82.4186H149.632Z" fill="#392F25"/>
<path id="Vector_4" d="M19.9883 24.0876V125.913C19.5571 125.456 19.1445 124.994 18.7383 124.531V25.4689C19.1445 25.0064 19.557 24.5439 19.9883 24.0876Z" fill="#392F25"/>
<path id="Vector_5" d="M135.652 115.868H19.3633V117.118H135.652V115.868Z" fill="#392F25"/>
<path id="Vector_6" d="M92.1641 58.2949C92.1641 68.9485 76.4966 98.9911 70.6122 109.899C70.3985 110.296 70.0813 110.627 69.6943 110.859C69.3073 111.09 68.8649 111.212 68.4141 111.212C67.9633 111.212 67.5209 111.09 67.1339 110.859C66.7469 110.627 66.4297 110.296 66.216 109.899C60.3316 98.9911 44.6641 68.9485 44.6641 58.2949C44.6641 51.996 47.1663 45.9551 51.6203 41.5011C56.0743 37.0471 62.1152 34.5449 68.4141 34.5449C74.713 34.5449 80.7539 37.0471 85.2078 41.5011C89.6618 45.9551 92.1641 51.996 92.1641 58.2949Z" fill="#FF6161"/>
<path id="Vector_7" d="M68.418 68.9197C74.286 68.9197 79.043 64.1627 79.043 58.2947C79.043 52.4267 74.286 47.6697 68.418 47.6697C62.5499 47.6697 57.793 52.4267 57.793 58.2947C57.793 64.1627 62.5499 68.9197 68.418 68.9197Z" fill="white"/>
<path id="Vector_8" d="M68.418 121.42C70.8342 121.42 72.793 119.461 72.793 117.045C72.793 114.629 70.8342 112.67 68.418 112.67C66.0017 112.67 64.043 114.629 64.043 117.045C64.043 119.461 66.0017 121.42 68.418 121.42Z" fill="#FF6161"/>
<path id="Vector_9" d="M135.506 117.119H135.65V116.913C135.606 116.984 135.558 117.053 135.506 117.119ZM134.544 29.4563C134.225 29.0375 133.9 28.6188 133.563 28.2063C126.924 19.8769 118.584 13.0601 109.101 8.21109C99.6172 3.36209 89.2081 0.592564 78.5688 0.0875102C78.0939 0.0624852 77.619 0.0437375 77.1439 0.0312625C76.4313 0.0125125 75.7187 1.06372e-05 75 1.06372e-05C64.6634 -0.00550264 54.438 2.13219 44.9693 6.27811C35.5005 10.424 26.9943 16.4881 19.9875 24.0875C19.5563 24.5438 19.1437 25.0063 18.7375 25.4688C17.9438 26.3625 17.1771 27.275 16.4374 28.2063C16.0999 28.6188 15.7752 29.0375 15.4563 29.4563C4.89405 43.2259 -0.554017 60.2385 0.0445543 77.5823C0.643126 94.926 7.25112 111.523 18.7375 124.531C19.1437 124.994 19.5563 125.456 19.9875 125.912C27.5407 134.092 36.8223 140.485 47.1572 144.626C57.4921 148.767 68.6202 150.552 79.7318 149.851C90.8433 149.15 101.659 145.981 111.391 140.574C121.124 135.167 129.528 127.658 135.994 118.594C136.269 118.206 136.544 117.819 136.812 117.425C143.744 107.383 148.099 95.7905 149.494 83.6687C149.55 83.2562 149.594 82.8375 149.631 82.4187C149.875 79.9812 149.998 77.5083 150 75C150.019 58.5284 144.584 42.5139 134.544 29.4563ZM148.238 83.6687C146.877 95.304 142.74 106.442 136.175 116.144C136.006 116.4 135.831 116.656 135.65 116.913C135.606 116.984 135.558 117.053 135.506 117.119C135.463 117.188 135.413 117.256 135.363 117.325C128.987 126.435 120.632 133.983 110.924 139.403C101.216 144.824 90.4062 147.976 79.3061 148.625C68.206 149.273 57.1032 147.4 46.8301 143.146C36.5569 138.892 27.3801 132.368 19.9875 124.062C19.5563 123.587 19.1376 123.112 18.7375 122.625C7.7473 109.677 1.5733 93.3258 1.26232 76.345C0.951341 59.3642 6.52253 42.7983 17.0312 29.4562C17.3627 29.0375 17.6938 28.6187 18.0374 28.2062C18.2626 27.925 18.4937 27.65 18.7375 27.375C19.1376 26.8875 19.5563 26.4125 19.9875 25.9375C26.8919 18.1687 35.3647 11.9516 44.8472 7.69627C54.3297 3.4409 64.6064 1.24385 75 1.24998C75.9314 1.24998 76.8563 1.26873 77.7749 1.30623C78.2562 1.31873 78.7314 1.34373 79.2062 1.36873C89.3778 1.95018 99.3181 4.6355 108.399 9.25493C117.48 13.8744 125.503 20.3274 131.963 28.2062C132.306 28.6187 132.638 29.0375 132.969 29.4562C143.208 42.4271 148.769 58.4747 148.75 75C148.75 77.5062 148.627 79.9791 148.381 82.4187C148.337 82.8375 148.294 83.2563 148.238 83.6687ZM135.506 117.119H135.65V116.913C135.606 116.984 135.558 117.053 135.506 117.119Z" fill="#CCCCCC"/>
</g>
</svg>
