<svg width="24" height="24" viewBox="0 0 24 24" fill="none" xmlns="http://www.w3.org/2000/svg">
<g id="vuesax/bold/microphone">
<g id="microphone">
<path id="Vector" d="M12.0016 21.93C6.96156 21.93 2.85156 17.83 2.85156 12.78V10.9C2.85156 10.51 3.17156 10.2 3.55156 10.2C3.93156 10.2 4.25156 10.52 4.25156 10.9V12.78C4.25156 17.05 7.72156 20.52 11.9916 20.52C16.2616 20.52 19.7316 17.05 19.7316 12.78V10.9C19.7316 10.51 20.0516 10.2 20.4316 10.2C20.8116 10.2 21.1316 10.52 21.1316 10.9V12.78C21.1516 17.83 17.0416 21.93 12.0016 21.93Z" fill="white"/>
<path id="Vector_2" d="M11.9984 2C8.63844 2 5.89844 4.74 5.89844 8.1V12.79C5.89844 16.15 8.63844 18.89 11.9984 18.89C15.3584 18.89 18.0984 16.15 18.0984 12.79V8.1C18.0984 4.74 15.3584 2 11.9984 2ZM14.1784 10.59C14.1084 10.86 13.8584 11.04 13.5884 11.04C13.5384 11.04 13.4784 11.03 13.4284 11.02C12.4084 10.74 11.3284 10.74 10.3084 11.02C9.97844 11.11 9.64844 10.92 9.55844 10.59C9.46844 10.27 9.65844 9.93 9.98844 9.84C11.2184 9.5 12.5184 9.5 13.7484 9.84C14.0784 9.93 14.2684 10.26 14.1784 10.59ZM15.0284 7.82C14.9384 8.07 14.7084 8.22 14.4584 8.22C14.3884 8.22 14.3184 8.21 14.2484 8.18C12.7184 7.62 11.0384 7.62 9.50844 8.18C9.18844 8.3 8.83844 8.14 8.71844 7.82C8.60844 7.51 8.76844 7.16 9.08844 7.04C10.8884 6.39 12.8684 6.39 14.6584 7.04C14.9784 7.16 15.1384 7.51 15.0284 7.82Z" fill="white"/>
</g>
</g>
</svg>
