<svg width="24" height="24" viewBox="0 0 24 24" fill="none" xmlns="http://www.w3.org/2000/svg">
<g id="vuesax/bold/microphone-2">
<g id="microphone-2">
<path id="Vector" d="M18.5172 9.27154C18.1477 9.27154 17.854 9.56523 17.854 9.93471V11.4316C17.854 14.7853 15.1256 17.5138 11.7718 17.5138C8.41809 17.5138 5.68962 14.7853 5.68962 11.4316V9.92524C5.68962 9.55576 5.39593 9.26207 5.02645 9.26207C4.65697 9.26207 4.36328 9.55576 4.36328 9.92524V11.4221C4.36328 15.278 7.3286 18.4517 11.1087 18.7928V20.8107C11.1087 21.1802 11.4024 21.4739 11.7718 21.4739C12.1413 21.4739 12.435 21.1802 12.435 20.8107V18.7928C16.2056 18.4612 19.1804 15.278 19.1804 11.4221V9.92524C19.1709 9.56523 18.8772 9.27154 18.5172 9.27154Z" fill="white"/>
<path id="Vector_2" d="M11.7734 2.52615C9.46176 2.52615 7.58594 4.40198 7.58594 6.7136V11.5642C7.58594 13.8758 9.46176 15.7517 11.7734 15.7517C14.085 15.7517 15.9608 13.8758 15.9608 11.5642V6.7136C15.9608 4.40198 14.085 2.52615 11.7734 2.52615ZM13.0145 9.11048C12.9481 9.3568 12.7302 9.51786 12.4839 9.51786C12.4366 9.51786 12.3892 9.50838 12.3418 9.49891C11.9723 9.3947 11.5839 9.3947 11.2144 9.49891C10.9113 9.58417 10.6176 9.40417 10.5418 9.11048C10.4565 8.81679 10.6365 8.51363 10.9302 8.43784C11.4892 8.28626 12.0765 8.28626 12.6355 8.43784C12.9197 8.51363 13.0902 8.81679 13.0145 9.11048ZM13.5166 7.27255C13.4313 7.49993 13.2229 7.63256 12.9955 7.63256C12.9292 7.63256 12.8723 7.62309 12.806 7.60414C12.1429 7.35782 11.4039 7.35782 10.7407 7.60414C10.4565 7.70835 10.1344 7.55677 10.0302 7.27255C9.92598 6.98834 10.0776 6.66623 10.3618 6.57149C11.2713 6.2399 12.2755 6.2399 13.185 6.57149C13.4692 6.6757 13.6208 6.98834 13.5166 7.27255Z" fill="white"/>
</g>
</g>
</svg>
