<svg width="24" height="25" viewBox="0 0 24 25" fill="none" xmlns="http://www.w3.org/2000/svg">
<g id="vuesax/linear/notification">
<g id="notification">
<path id="Vector" d="M12.0206 3.40997C8.71058 3.40997 6.02058 6.09997 6.02058 9.40997V12.3C6.02058 12.91 5.76058 13.84 5.45058 14.36L4.30058 16.27C3.59058 17.45 4.08058 18.76 5.38058 19.2C9.69058 20.64 14.3406 20.64 18.6506 19.2C19.8606 18.8 20.3906 17.37 19.7306 16.27L18.5806 14.36C18.2806 13.84 18.0206 12.91 18.0206 12.3V9.40997C18.0206 6.10997 15.3206 3.40997 12.0206 3.40997Z" stroke="#090B0E" stroke-width="1.5" stroke-miterlimit="10" stroke-linecap="round"/>
<path id="Vector_2" d="M13.8699 3.7C13.5599 3.61 13.2399 3.54 12.9099 3.5C11.9499 3.38 11.0299 3.45 10.1699 3.7C10.4599 2.96 11.1799 2.44 12.0199 2.44C12.8599 2.44 13.5799 2.96 13.8699 3.7Z" stroke="#090B0E" stroke-width="1.5" stroke-miterlimit="10" stroke-linecap="round" stroke-linejoin="round"/>
<path id="Vector_3" d="M15.0195 19.56C15.0195 21.21 13.6695 22.56 12.0195 22.56C11.1995 22.56 10.4395 22.22 9.89953 21.68C9.35953 21.14 9.01953 20.38 9.01953 19.56" stroke="#090B0E" stroke-width="1.5" stroke-miterlimit="10"/>
</g>
</g>
</svg>
