<svg width="49" height="48" viewBox="0 0 49 48" fill="none" xmlns="http://www.w3.org/2000/svg">
<g id="vuesax/bulk/profile-2user">
<g id="profile-2user">
<path id="Vector" opacity="0.4" d="M18.5 4C13.26 4 9 8.26 9 13.5C9 18.64 13.02 22.8 18.26 22.98C18.42 22.96 18.58 22.96 18.7 22.98C18.74 22.98 18.76 22.98 18.8 22.98C18.82 22.98 18.82 22.98 18.84 22.98C23.96 22.8 27.98 18.64 28 13.5C28 8.26 23.74 4 18.5 4Z" fill="#D6CEFF"/>
<path id="Vector_2" d="M28.6599 28.3C23.0799 24.58 13.9799 24.58 8.35992 28.3C5.81992 30 4.41992 32.3 4.41992 34.76C4.41992 37.22 5.81992 39.5 8.33992 41.18C11.1399 43.06 14.8199 44 18.4999 44C22.1799 44 25.8599 43.06 28.6599 41.18C31.1799 39.48 32.5799 37.2 32.5799 34.72C32.5599 32.26 31.1799 29.98 28.6599 28.3Z" fill="#7B61FF"/>
<path id="Vector_3" opacity="0.4" d="M40.4807 14.68C40.8007 18.56 38.0407 21.96 34.2207 22.42C34.2007 22.42 34.2007 22.42 34.1807 22.42H34.1207C34.0007 22.42 33.8807 22.42 33.7807 22.46C31.8407 22.56 30.0607 21.94 28.7207 20.8C30.7807 18.96 31.9607 16.2 31.7207 13.2C31.5807 11.58 31.0207 10.1 30.1807 8.83996C30.9407 8.45996 31.8207 8.21996 32.7207 8.13996C36.6407 7.79996 40.1407 10.72 40.4807 14.68Z" fill="#D6CEFF"/>
<path id="Vector_4" d="M44.4805 33.1801C44.3205 35.1201 43.0805 36.8001 41.0005 37.9401C39.0005 39.0401 36.4805 39.5601 33.9805 39.5001C35.4205 38.2001 36.2605 36.5801 36.4205 34.8601C36.6205 32.3801 35.4405 30.0001 33.0805 28.1001C31.7405 27.0401 30.1805 26.2001 28.4805 25.5801C32.9005 24.3001 38.4605 25.1601 41.8805 27.9201C43.7205 29.4001 44.6605 31.2601 44.4805 33.1801Z" fill="#7B61FF"/>
</g>
</g>
</svg>
