<svg width="18" height="19" viewBox="0 0 18 19" fill="none" xmlns="http://www.w3.org/2000/svg">
<g id="vuesax/bold/record">
<g id="record">
<path id="Vector" d="M14.7222 5.92999C14.9473 6.28249 14.8273 6.75499 14.4673 6.97249L14.0248 7.23499L4.19225 13.13C3.83225 13.3475 3.35975 13.2275 3.14975 12.86C2.39975 11.555 2.06225 9.96499 2.35475 8.29999C2.84975 5.47249 5.17475 3.22249 8.01725 2.81749C10.8298 2.41999 13.3723 3.76999 14.7222 5.92999Z" fill="#FF3A3A"/>
<path id="Vector_2" d="M15.6679 10.5725C15.1579 13.76 12.3379 16.1975 9.10536 16.25C7.68036 16.2725 6.36036 15.86 5.26536 15.1175C4.80036 14.81 4.81536 14.12 5.29536 13.835L14.6029 8.36751C15.0904 8.08251 15.6904 8.41251 15.7354 8.97501C15.7729 9.50001 15.7504 10.0325 15.6679 10.5725Z" fill="#FF3A3A"/>
</g>
</g>
</svg>
