<svg width="24" height="24" viewBox="0 0 24 24" fill="none" xmlns="http://www.w3.org/2000/svg">
<g id="vuesax/bold/ticket-star">
<g id="ticket-star">
<path id="Vector" d="M16.6487 3.85999H9.90865V6.87999C9.90865 7.26999 9.58865 7.57999 9.20865 7.57999C8.82865 7.57999 8.50865 7.26999 8.50865 6.87999V3.85999H7.34865C3.39865 3.85999 2.09865 5.03999 2.00865 8.72999C1.99865 8.90999 2.07865 9.09999 2.20865 9.22999C2.33865 9.36999 2.50865 9.43999 2.70865 9.43999C4.10865 9.43999 5.25865 10.6 5.25865 12C5.25865 13.4 4.10865 14.56 2.70865 14.56C2.51865 14.56 2.33865 14.63 2.20865 14.77C2.07865 14.9 1.99865 15.09 2.00865 15.27C2.09865 18.96 3.39865 20.14 7.34865 20.14H8.50865V17.12C8.50865 16.73 8.82865 16.42 9.20865 16.42C9.58865 16.42 9.90865 16.73 9.90865 17.12V20.14H16.6487C20.7487 20.14 21.9987 18.89 21.9987 14.79V9.20999C21.9987 5.10999 20.7487 3.85999 16.6487 3.85999ZM18.4687 11.9L17.5387 12.8C17.4987 12.83 17.4887 12.89 17.4987 12.94L17.7187 14.21C17.7587 14.44 17.6687 14.68 17.4687 14.82C17.2787 14.96 17.0287 14.98 16.8187 14.87L15.6687 14.27C15.6287 14.25 15.5687 14.25 15.5287 14.27L14.3787 14.87C14.2887 14.92 14.1887 14.94 14.0887 14.94C13.9587 14.94 13.8387 14.9 13.7287 14.82C13.5387 14.68 13.4387 14.45 13.4787 14.21L13.6987 12.94C13.7087 12.89 13.6887 12.84 13.6587 12.8L12.7287 11.9C12.5587 11.74 12.4987 11.49 12.5687 11.27C12.6387 11.04 12.8287 10.88 13.0687 10.85L14.3487 10.66C14.3987 10.65 14.4387 10.62 14.4687 10.58L15.0387 9.41999C15.1487 9.20999 15.3587 9.07999 15.5987 9.07999C15.8387 9.07999 16.0487 9.20999 16.1487 9.41999L16.7187 10.58C16.7387 10.63 16.7787 10.66 16.8287 10.66L18.1087 10.85C18.3487 10.88 18.5387 11.05 18.6087 11.27C18.6987 11.49 18.6387 11.73 18.4687 11.9Z" fill="#FFB661"/>
</g>
</g>
</svg>
