<svg width="49" height="48" viewBox="0 0 49 48" fill="none" xmlns="http://www.w3.org/2000/svg">
<g id="vuesax/bulk/verify">
<g id="verify">
<path id="Vector" opacity="0.4" d="M22 4.89989C23.38 3.71989 25.64 3.71989 27.04 4.89989L30.2 7.61989C30.8 8.13989 31.92 8.55989 32.72 8.55989H36.12C38.24 8.55989 39.98 10.2999 39.98 12.4199V15.8199C39.98 16.5999 40.4 17.7399 40.92 18.3399L43.64 21.4999C44.82 22.8799 44.82 25.1399 43.64 26.5399L40.92 29.6999C40.4 30.2999 39.98 31.4199 39.98 32.2199V35.6199C39.98 37.7399 38.24 39.4799 36.12 39.4799H32.72C31.94 39.4799 30.8 39.8999 30.2 40.4199L27.04 43.1399C25.66 44.3199 23.4 44.3199 22 43.1399L18.84 40.4199C18.24 39.8999 17.12 39.4799 16.32 39.4799H12.86C10.74 39.4799 9.00001 37.7399 9.00001 35.6199V32.1999C9.00001 31.4199 8.58001 30.2999 8.08001 29.6999L5.38001 26.5199C4.22001 25.1399 4.22001 22.8999 5.38001 21.5199L8.08001 18.3399C8.58001 17.7399 9.00001 16.6199 9.00001 15.8399V12.3999C9.00001 10.2799 10.74 8.53989 12.86 8.53989H16.32C17.1 8.53989 18.24 8.11989 18.84 7.59989L22 4.89989Z" fill="#00BC32" fill-opacity="0.34"/>
<path id="Vector_2" d="M22.08 30.3401C21.68 30.3401 21.3 30.1801 21.02 29.9001L16.18 25.0601C15.6 24.4801 15.6 23.5201 16.18 22.9401C16.76 22.3601 17.72 22.3601 18.3 22.9401L22.08 26.7201L30.68 18.1201C31.26 17.5401 32.22 17.5401 32.8 18.1201C33.38 18.7001 33.38 19.6601 32.8 20.2401L23.14 29.9001C22.86 30.1801 22.48 30.3401 22.08 30.3401Z" fill="#00BC32"/>
</g>
</g>
</svg>
