<svg width="241" height="240" viewBox="0 0 241 240" fill="none" xmlns="http://www.w3.org/2000/svg">
<g id="Frame 52">
<path id="Vector" d="M219.4 187.88C218.97 188.51 218.53 189.13 218.09 189.75L217.08 187.72L216.92 187.39L215.92 185.39L190.46 134.08L190.45 134.07L147.29 47.13V47.12L146.3 45.13V45.12L124.94 2.09005L123.93 0.0500488C124.69 0.0700488 125.45 0.100053 126.21 0.140053L127.23 2.19005L148.53 45.12L148.54 45.13L149.53 47.12V47.13L191.59 131.86V131.87L192.58 133.86V133.87L218.04 185.14L218.38 185.83L219.4 187.88Z" fill="#392F25"/>
<path id="Vector_2" d="M215.77 47.1301H25.23C25.7402 46.4601 26.2598 45.7901 26.7998 45.1301H214.2C214.74 45.7901 215.26 46.4601 215.77 47.1301Z" fill="#392F25"/>
<path id="Vector_3" d="M239.91 131.87C239.85 132.54 239.78 133.21 239.69 133.87H190.88V131.87H239.91Z" fill="#392F25"/>
<path id="Vector_4" d="M32.48 38.54V201.46C31.79 200.73 31.1299 199.99 30.48 199.25V40.75C31.1299 40.0101 31.79 39.2701 32.48 38.54Z" fill="#392F25"/>
<path id="Vector_5" d="M217.542 185.389H31.4802V187.389H217.542V185.389Z" fill="#392F25"/>
<path id="Vector_6" d="M147.964 93.2717C147.964 110.317 122.896 158.386 113.481 175.838C113.139 176.473 112.632 177.004 112.013 177.374C111.393 177.744 110.686 177.939 109.964 177.939C109.243 177.939 108.535 177.744 107.916 177.374C107.297 177.004 106.789 176.473 106.447 175.838C97.0324 158.386 71.9644 110.317 71.9644 93.2717C71.9644 83.1935 75.9679 73.5281 83.0943 66.4017C90.2207 59.2753 99.8861 55.2717 109.964 55.2717C120.043 55.2717 129.708 59.2753 136.834 66.4017C143.961 73.5281 147.964 83.1935 147.964 93.2717Z" fill="#7B61FF"/>
<path id="Vector_7" d="M109.965 110.272C119.353 110.272 126.965 102.661 126.965 93.2717C126.965 83.8829 119.353 76.2717 109.965 76.2717C100.576 76.2717 92.9646 83.8829 92.9646 93.2717C92.9646 102.661 100.576 110.272 109.965 110.272Z" fill="white"/>
<path id="Vector_8" d="M109.965 194.272C113.831 194.272 116.965 191.138 116.965 187.272C116.965 183.406 113.831 180.272 109.965 180.272C106.099 180.272 102.965 183.406 102.965 187.272C102.965 191.138 106.099 194.272 109.965 194.272Z" fill="#7B61FF"/>
<path id="Vector_9" d="M217.31 187.39H217.54V187.06C217.47 187.175 217.393 187.285 217.31 187.39ZM215.77 47.13C215.26 46.46 214.74 45.79 214.2 45.13C203.578 31.8031 190.235 20.8961 175.061 13.1377C159.887 5.37934 143.233 0.948102 126.21 0.140016C125.45 0.0999764 124.69 0.0699801 123.93 0.0500201C122.79 0.0200201 121.65 1.70196e-05 120.5 1.70196e-05C103.962 -0.00880423 87.6007 3.4115 72.4508 10.045C57.3009 16.6785 43.6908 26.381 32.48 38.54C31.7901 39.27 31.1299 40.01 30.48 40.75C29.21 42.18 27.9833 43.64 26.7999 45.13C26.2599 45.79 25.7403 46.46 25.23 47.13C8.33048 69.1615 -0.386428 96.3816 0.571287 124.132C1.529 151.882 12.1018 178.436 30.48 199.25C31.1299 199.99 31.7901 200.73 32.48 201.46C44.565 214.548 59.4157 224.776 75.9515 231.402C92.4874 238.028 110.292 240.884 128.071 239.762C145.849 238.641 163.154 233.57 178.726 224.918C194.298 216.267 207.746 204.253 218.09 189.75C218.53 189.13 218.97 188.51 219.4 187.88C230.49 171.813 237.458 153.265 239.69 133.87C239.78 133.21 239.85 132.54 239.91 131.87C240.3 127.97 240.496 124.013 240.5 120C240.53 93.6454 231.835 68.0223 215.77 47.13ZM237.68 133.87C235.503 152.486 228.884 170.307 218.38 185.83C218.11 186.24 217.83 186.65 217.54 187.06C217.47 187.175 217.393 187.285 217.31 187.39C217.24 187.5 217.16 187.61 217.08 187.72C206.879 202.295 193.511 214.372 177.978 223.045C162.445 231.718 145.15 236.762 127.39 237.8C109.63 238.837 91.8651 235.84 75.4281 229.034C58.9911 222.228 44.3081 211.789 32.48 198.5C31.79 197.74 31.1201 196.98 30.48 196.2C12.8957 175.483 3.01728 149.321 2.51971 122.152C2.02215 94.9827 10.9361 68.4774 27.75 47.13C28.2803 46.46 28.8101 45.79 29.3599 45.13C29.7202 44.68 30.0899 44.24 30.48 43.8C31.1201 43.02 31.79 42.26 32.48 41.5C43.5271 29.0699 57.0835 19.1226 72.2555 12.314C87.4275 5.50544 103.87 1.99016 120.5 1.99997C121.99 1.99997 123.47 2.02997 124.94 2.08997C125.71 2.10997 126.47 2.14997 127.23 2.18997C143.504 3.12029 159.409 7.4168 173.938 14.8079C188.467 22.199 201.305 32.5239 211.64 45.13C212.19 45.79 212.72 46.46 213.25 47.13C229.633 67.8833 238.53 93.5595 238.5 120C238.5 124.01 238.303 127.967 237.91 131.87C237.84 132.54 237.77 133.21 237.68 133.87ZM217.31 187.39H217.54V187.06C217.47 187.175 217.393 187.285 217.31 187.39Z" fill="#CCCCCC"/>
</g>
</svg>
